<svg xmlns="http://www.w3.org/2000/svg" viewBox="0 0 1520 980" role="img" aria-labelledby="title desc">
  <title id="title">Portfolio dashboard wireframe with iCargo group and independent projects</title>
  <desc id="desc">Wireframe showing iCargo, icargo customer, and parcel-api as one related group, with route manager, inventory management, onboarding, bagging, linnworks, and webhook-worker as independent projects. Every card shows project name, tech, and detail link.</desc>
  <defs>
    <style>
      .bg { fill: #fbfcff; }
      .frame { fill: none; stroke: #111827; stroke-width: 10; }
      .group { fill: #f7f9fc; stroke: #111827; stroke-width: 8; rx: 22; ry: 22; }
      .card { fill: #ffffff; stroke: #111827; stroke-width: 7; rx: 18; ry: 18; }
      .line { stroke: #111827; stroke-width: 5; fill: none; stroke-linecap: round; }
      .title { font: 700 28px Arial, sans-serif; fill: #111827; }
      .sub { font: 600 18px Arial, sans-serif; fill: #111827; }
      .small { font: 600 15px Arial, sans-serif; fill: #475569; }
      .group-label { font: 700 18px Arial, sans-serif; fill: #0f4c81; }
      .chip { fill: #eef4ff; stroke: #111827; stroke-width: 3; rx: 10; ry: 10; }
      .chip-text { font: 700 12px Arial, sans-serif; fill: #0f4c81; }
      .linkbox { fill: #eef4ff; stroke: #111827; stroke-width: 4; rx: 10; ry: 10; }
      .linktext { font: 700 13px Arial, sans-serif; fill: #0f4c81; text-decoration: underline; }
      .note { font: 700 18px Arial, sans-serif; fill: #111827; }
    </style>
  </defs>

  <rect class="bg" x="0" y="0" width="1520" height="980" />
  <rect class="frame" x="18" y="18" width="1484" height="944" />

  <text class="title" x="56" y="72">Updated understanding</text>
  <text class="small" x="56" y="102">Only iCargo, icargo_customer, and parcel-api are grouped. All others are independent projects.</text>

  <text class="group-label" x="120" y="150">iCargo related group</text>
  <rect class="group" x="90" y="170" width="1330" height="220" />

  <g id="icargo-card">
    <rect class="card" x="120" y="205" width="520" height="150" />
    <text class="title" x="380" y="255" text-anchor="middle">iCargo</text>
    <text class="sub" x="380" y="284" text-anchor="middle">main product / internal operations dashboard</text>
    <rect class="chip" x="235" y="302" width="90" height="28" />
    <text class="chip-text" x="280" y="320" text-anchor="middle">AngularJS</text>
    <rect class="chip" x="338" y="302" width="54" height="28" />
    <text class="chip-text" x="365" y="320" text-anchor="middle">PHP</text>
    <rect class="chip" x="405" y="302" width="70" height="28" />
    <text class="chip-text" x="440" y="320" text-anchor="middle">Ops UI</text>
    <a href="icargo.html" target="_top">
      <rect class="linkbox" x="438" y="220" width="150" height="34" />
      <text class="linktext" x="513" y="242" text-anchor="middle">detail page</text>
    </a>
  </g>

  <g id="icargo-customer-card">
    <rect class="card" x="690" y="205" width="360" height="150" />
    <text class="title" x="870" y="255" text-anchor="middle">icargo_customer</text>
    <text class="sub" x="870" y="284" text-anchor="middle">customer portal</text>
    <rect class="chip" x="770" y="302" width="84" height="28" />
    <text class="chip-text" x="812" y="320" text-anchor="middle">Zend MVC</text>
    <rect class="chip" x="866" y="302" width="54" height="28" />
    <text class="chip-text" x="893" y="320" text-anchor="middle">PHP</text>
    <rect class="chip" x="932" y="302" width="74" height="28" />
    <text class="chip-text" x="969" y="320" text-anchor="middle">Portal</text>
    <a href="icargo-customer.html" target="_top">
      <rect class="linkbox" x="818" y="220" width="104" height="34" />
      <text class="linktext" x="870" y="242" text-anchor="middle">detail page</text>
    </a>
  </g>

  <g id="parcel-api-card">
    <rect class="card" x="1100" y="205" width="280" height="150" />
    <text class="title" x="1240" y="255" text-anchor="middle">parcel-api</text>
    <text class="sub" x="1240" y="284" text-anchor="middle">shared backend</text>
    <rect class="chip" x="1158" y="302" width="46" height="28" />
    <text class="chip-text" x="1181" y="320" text-anchor="middle">PHP</text>
    <rect class="chip" x="1216" y="302" width="62" height="28" />
    <text class="chip-text" x="1247" y="320" text-anchor="middle">Redis</text>
    <rect class="chip" x="1290" y="302" width="72" height="28" />
    <text class="chip-text" x="1326" y="320" text-anchor="middle">APIs</text>
    <a href="parcel-api.html" target="_top">
      <rect class="linkbox" x="1188" y="220" width="104" height="34" />
      <text class="linktext" x="1240" y="242" text-anchor="middle">detail page</text>
    </a>
  </g>

  <path class="line" d="M640 280 L690 280" />
  <path class="line" d="M1050 280 L1100 280" />

  <text class="group-label" x="120" y="455">Independent projects</text>

  <g id="route-manager-card">
    <rect class="card" x="90" y="480" width="260" height="195" />
    <text class="title" x="220" y="538" text-anchor="middle">route manager</text>
    <text class="small" x="220" y="568" text-anchor="middle">independent project</text>
    <rect class="chip" x="138" y="592" width="86" height="28" />
    <text class="chip-text" x="181" y="610" text-anchor="middle">Next.js</text>
    <rect class="chip" x="234" y="592" width="72" height="28" />
    <text class="chip-text" x="270" y="610" text-anchor="middle">Redux</text>
    <rect class="chip" x="165" y="628" width="94" height="28" />
    <text class="chip-text" x="212" y="646" text-anchor="middle">Mapbox</text>
    <a href="route-manager.html" target="_top">
      <rect class="linkbox" x="150" y="640" width="140" height="28" />
      <text class="linktext" x="220" y="658" text-anchor="middle">detail page</text>
    </a>
  </g>

  <g id="inventory-card">
    <rect class="card" x="390" y="480" width="260" height="195" />
    <text class="title" x="520" y="528" text-anchor="middle">inventory</text>
    <text class="title" x="520" y="560" text-anchor="middle">management</text>
    <text class="small" x="520" y="588" text-anchor="middle">independent project</text>
    <rect class="chip" x="430" y="602" width="86" height="28" />
    <text class="chip-text" x="473" y="620" text-anchor="middle">Next.js</text>
    <rect class="chip" x="526" y="602" width="74" height="28" />
    <text class="chip-text" x="563" y="620" text-anchor="middle">Prisma</text>
    <rect class="chip" x="482" y="638" width="78" height="28" />
    <text class="chip-text" x="521" y="656" text-anchor="middle">Postgres</text>
    <a href="inventory-management.html" target="_top">
      <rect class="linkbox" x="450" y="640" width="140" height="28" />
      <text class="linktext" x="520" y="658" text-anchor="middle">detail page</text>
    </a>
  </g>

  <g id="onboarding-card">
    <rect class="card" x="690" y="480" width="260" height="195" />
    <text class="title" x="820" y="538" text-anchor="middle">onboarding</text>
    <text class="small" x="820" y="568" text-anchor="middle">independent project</text>
    <rect class="chip" x="742" y="592" width="86" height="28" />
    <text class="chip-text" x="785" y="610" text-anchor="middle">Next.js</text>
    <rect class="chip" x="838" y="592" width="78" height="28" />
    <text class="chip-text" x="877" y="610" text-anchor="middle">Sequelize</text>
    <rect class="chip" x="766" y="628" width="108" height="28" />
    <text class="chip-text" x="820" y="646" text-anchor="middle">Workflow UI</text>
    <a href="onboarding.html" target="_top">
      <rect class="linkbox" x="750" y="640" width="140" height="28" />
      <text class="linktext" x="820" y="658" text-anchor="middle">detail page</text>
    </a>
  </g>

  <g id="bagging-card">
    <rect class="card" x="990" y="480" width="260" height="195" />
    <text class="title" x="1120" y="538" text-anchor="middle">bagging</text>
    <text class="small" x="1120" y="568" text-anchor="middle">independent project</text>
    <rect class="chip" x="1032" y="592" width="86" height="28" />
    <text class="chip-text" x="1075" y="610" text-anchor="middle">Next.js</text>
    <rect class="chip" x="1128" y="592" width="102" height="28" />
    <text class="chip-text" x="1179" y="610" text-anchor="middle">TypeScript</text>
    <rect class="chip" x="1076" y="628" width="88" height="28" />
    <text class="chip-text" x="1120" y="646" text-anchor="middle">Sequelize</text>
    <a href="bagging.html" target="_top">
      <rect class="linkbox" x="1050" y="640" width="140" height="28" />
      <text class="linktext" x="1120" y="658" text-anchor="middle">detail page</text>
    </a>
  </g>

  <g id="linnworks-card">
    <rect class="card" x="90" y="730" width="260" height="195" />
    <text class="title" x="220" y="788" text-anchor="middle">linnworks</text>
    <text class="small" x="220" y="818" text-anchor="middle">independent project</text>
    <rect class="chip" x="138" y="842" width="82" height="28" />
    <text class="chip-text" x="179" y="860" text-anchor="middle">NestJS</text>
    <rect class="chip" x="230" y="842" width="104" height="28" />
    <text class="chip-text" x="282" y="860" text-anchor="middle">TypeORM</text>
    <rect class="chip" x="186" y="878" width="66" height="28" />
    <text class="chip-text" x="219" y="896" text-anchor="middle">MySQL</text>
    <a href="linnworks.html" target="_top">
      <rect class="linkbox" x="150" y="890" width="140" height="28" />
      <text class="linktext" x="220" y="908" text-anchor="middle">detail page</text>
    </a>
  </g>

  <g id="webhook-worker-card">
    <rect class="card" x="390" y="730" width="260" height="195" />
    <text class="title" x="520" y="778" text-anchor="middle">webhook</text>
    <text class="title" x="520" y="810" text-anchor="middle">worker</text>
    <text class="small" x="520" y="838" text-anchor="middle">independent project</text>
    <rect class="chip" x="428" y="852" width="82" height="28" />
    <text class="chip-text" x="469" y="870" text-anchor="middle">NestJS</text>
    <rect class="chip" x="520" y="852" width="66" height="28" />
    <text class="chip-text" x="553" y="870" text-anchor="middle">Redis</text>
    <rect class="chip" x="470" y="888" width="100" height="28" />
    <text class="chip-text" x="520" y="906" text-anchor="middle">TypeORM</text>
    <a href="webhook-worker.html" target="_top">
      <rect class="linkbox" x="450" y="890" width="140" height="28" />
      <text class="linktext" x="520" y="908" text-anchor="middle">detail page</text>
    </a>
  </g>

  <text class="note" x="760" y="770">If this grouping is right, the next HTML version should follow this exact structure.</text>
</svg>
